<svg xmlns="http://www.w3.org/2000/svg" width="107" height="32" fill="none"><g clip-path="url(#bitwyre-logo_svg__a)"><path d="M38.782 15.982c.126-.098.24-.177.345-.268a2.72 2.72 0 0 0 .323-.305c.916-1.068 1.13-2.33.833-3.668-.433-2.01-2.113-3.335-4.189-3.34h-5.667c-.52 0-.672.155-.672.681v14.721c0 .507.148.663.634.663h6.133c.3.004.6-.016.898-.06 1.561-.259 2.774-1.03 3.356-2.6.566-1.508.556-3.003-.324-4.409a3.686 3.686 0 0 0-1.67-1.415Zm-6.713-5.358c.087 0 .166-.012.245-.012h3.67a2.01 2.01 0 0 1 1.452.577c.392.382.621.908.638 1.464.024 1.3-.786 2.255-2.004 2.284-1.302.033-2.605 0-3.908 0a.489.489 0 0 1-.089-.02l-.004-4.293Zm6.138 10.764c-.236.27-.525.483-.849.628a2.408 2.408 0 0 1-1.025.21c-1.399.03-2.798.01-4.2.01a.368.368 0 0 1-.067-.021v-5.027c.062-.01.125-.017.188-.02 1.375 0 2.752-.025 4.127 0 .983.023 1.776.458 2.182 1.42.407.96.36 1.963-.356 2.804v-.004ZM71.98 12.414a.266.266 0 0 0-.212.048.28.28 0 0 0-.113.191 1748.35 1748.35 0 0 1-2.168 7.354c-.056.194-.116.37-.188.62-.047-.148-.073-.226-.096-.303-.764-2.555-1.526-5.108-2.285-7.66a.296.296 0 0 0-.115-.2.277.277 0 0 0-.222-.05c-.487.014-.977.016-1.465 0a.262.262 0 0 0-.209.05.277.277 0 0 0-.107.191c-.754 2.563-1.517 5.125-2.29 7.684-.023.074-.053.148-.099.276-.045-.142-.073-.225-.098-.309l-2.26-7.665a.275.275 0 0 0-.106-.18.258.258 0 0 0-.2-.047c-.4 0-.797 0-1.197-.011-.53 0-.74.281-.583.81l1.52 5.14 1.67 5.646c.107.364.247.467.622.467h1.148c.163 0 .225-.059.272-.208.65-2.087 1.304-4.174 1.96-6.26l.703-2.226.753 2.412c.634 2.032 1.271 4.064 1.91 6.095.023.07.104.171.158.173.577.014 1.153 0 1.73 0l3.578-12.04c-.716.006-1.362.014-2.012.002ZM106.727 16.13c-.411-1.59-1.266-2.817-2.735-3.535a5.577 5.577 0 0 0-3.266-.464c-1.857.252-3.277 1.198-4.143 2.928-.633 1.255-.818 2.606-.74 4.002a6.406 6.406 0 0 0 1.182 3.51c1.051 1.44 2.505 2.116 4.221 2.227a5.581 5.581 0 0 0 3.823-1.096 5.287 5.287 0 0 0 1.761-2.297l-2.226-.724c-.41.839-1.009 1.454-1.883 1.734a3.468 3.468 0 0 1-2.532-.068c-1.11-.491-2.105-2.208-1.864-3.233h8.153a.486.486 0 0 0 .367-.15.528.528 0 0 0 .144-.378 7.824 7.824 0 0 0-.262-2.457Zm-8.38 1.139c.129-1.553 1.084-2.84 2.613-3.076a3.43 3.43 0 0 1 1.942.179c1.028.452 1.459 1.347 1.678 2.398.032.155.043.313.068.499h-6.3ZM84.131 12.414a.272.272 0 0 0-.198.052.289.289 0 0 0-.11.178c-.764 2.11-1.531 4.22-2.302 6.328-.294.806-.588 1.612-.902 2.478l-.863-2.257c-.834-2.19-1.669-4.38-2.505-6.569-.053-.14-.113-.213-.277-.21-.463.014-.928 0-1.392.012a.665.665 0 0 0-.391.16c-.215.193-.155.448-.057.694l4.298 10.89a.61.61 0 0 1 .013.476 471.966 471.966 0 0 0-1.565 4.385c-.166.468.047.777.524.788.376 0 .766-.01 1.149 0a.257.257 0 0 0 .19-.044c.056-.04.095-.1.11-.167a26613.81 26613.81 0 0 1 5.862-15.815c.168-.45.332-.9.507-1.379-.723.004-1.407.012-2.09 0ZM56.136 22.553c-.693 0-1.35.025-2.006 0a1.498 1.498 0 0 1-1.032-.481 1.591 1.591 0 0 1-.422-1.084 46.563 46.563 0 0 1-.025-1.36v-5.033c0-.09 0-.179.014-.297h3.47v-1.884H52.66v-3.32h-2.283V11.74c0 .502-.17.677-.659.677h-1.576c0 .503-.014.971 0 1.455a.479.479 0 0 0 .161.317.451.451 0 0 0 .332.106H50.1c.087 0 .172.01.272.014v.277c0 2.257.006 4.513.018 6.77 0 1.458.778 2.59 2.061 3.033 1.173.406 2.36.299 3.548.099a.25.25 0 0 0 .134-.184c.015-.269 0-.538 0-.806l.004-.946ZM90.126 14.286v-1.868h-1.354c-.512 0-.667.161-.667.694v11.33h2.31V18.36c.002-.39.036-.78.101-1.165.309-1.812 1.695-2.86 3.462-2.656.143.015.282.039.437.06v-2.196c-1.765-.226-3.236.244-4.289 1.883ZM43.733 24.458h2.232V12.432h-2.232v12.026ZM43.726 10.455H45.4c.388 0 .578-.194.58-.608V8.21h-2.26l.006 2.246Z" fill="#bc9c21"></path><path d="M19.806 6.906a10.08 10.08 0 0 0-.774-2.23 8.494 8.494 0 0 0-3.454-3.61 7.684 7.684 0 0 0-3.833-1.06c-3.42-.01-6.839 0-10.259 0-.394 0-.771.16-1.053.443A2.06 2.06 0 0 0 0 1.226v11.993c.056.252.17.488.332.686.163.198.368.354.6.454.165.072.341.111.52.114H9.97v-2.101H2.221c-.189 0-.228-.049-.228-.237V2.313c0-.182.034-.239.224-.239h9.136c3.121.014 5.705 2.103 6.404 5.243.5 2.268-.064 4.288-1.578 6.02.614.352 1.203.742 1.785 1.146.976-1.117 1.539-2.455 1.863-3.896a8.22 8.22 0 0 0-.02-3.681ZM15.704 15.455a6.434 6.434 0 0 0-1.224-.582.57.57 0 0 0-.283-.049 4.772 4.772 0 0 1-2.086.598c-1.807.092-3.615.025-5.423.035-1.612 0-3.226.023-4.838 0C.936 15.44.294 15.77 0 16.694v14.108c.084.302.247.574.47.787.225.214.5.36.8.423h7.82c.27-.111.565-.049.832-.045.235 0 .303-.066.296-.309-.017-.582 0-1.165 0-1.748H4.083c-.617 0-1.237-.01-1.857 0-.188 0-.224-.054-.224-.236V17.782c0-.195.062-.227.234-.227 3.168 0 6.337.017 9.505 0a7.866 7.866 0 0 0 4.64-1.577c-.165-.278-.445-.367-.677-.523Z" fill="#3514E5"></path><path d="M16.377 15.956c-.16-.256-.441-.345-.673-.5a6.43 6.43 0 0 0-1.224-.583.57.57 0 0 0-.283-.049 5.516 5.516 0 0 0-1.87-.35c-.785-.023-1.57-.011-2.358-.015v-2.087l1.902-.014a9.814 9.814 0 0 1 2.449.297c.631.179 1.249.406 1.847.68a24.43 24.43 0 0 1 1.786 1.145c.185.221.39.423.614.602 1.522 1.513 2.509 3.338 2.802 5.49.537 3.915-.732 7.12-3.787 9.533a9.008 9.008 0 0 1-4.227 1.788 5.754 5.754 0 0 0-.855.109H9.09c.27-.11.565-.049.832-.045.235 0 .303-.066.296-.309-.017-.582 0-1.165 0-1.747.642 0 1.284-.014 1.926 0 .285.001.57-.02.852-.066a7.277 7.277 0 0 0 4.494-2.418 7.85 7.85 0 0 0 1.98-5.05 7.871 7.871 0 0 0-1.747-5.14 5.147 5.147 0 0 0-1.346-1.27Z" fill="url(#bitwyre-logo_svg__b)"></path></g><defs><linearGradient id="bitwyre-logo_svg__b" x1="9.089" y1="22.178" x2="21.5" y2="22.178" gradientUnits="userSpaceOnUse"><stop stop-color="#3514E5"></stop><stop offset="1" stop-color="#00A7EA"></stop></linearGradient><clipPath id="bitwyre-logo_svg__a"><path fill="#fff" d="M0 0h107v32H0z"></path></clipPath></defs></svg>